# xmcd
#
# Track frame offsets:
#	150
#	14577
#	31075
#	47302
#	62412
#	79675
#	92907
#	109257
#	130415
#	144667
#
# Disc length: 2160 seconds
#
# Revision: 1
# Processed by: cddbd v1.4PL0 Copyright (c) Steve Scherf et al.
# Submitted via: dBpowerAMP V4.0
#
DISCID=7d086e0a
DTITLE=古巨基 - Be My Valentine
DYEAR=1998
DGENRE=Pop
TTITLE0=Be My Valentine
TTITLE1=一知半解
TTITLE2=有你一天
TTITLE3=「倒影」先生
TTITLE4=重拾舊歡
TTITLE5=兩個故事
TTITLE6=理由
TTITLE7=無了的飛
TTITLE8=樓下有人
TTITLE9=決裂
EXTD=
EXTT0=
EXTT1=
EXTT2=
EXTT3=
EXTT4=
EXTT5=
EXTT6=
EXTT7=
EXTT8=
EXTT9=
PLAYORDER=
